<?xml version="1.0" encoding="UTF-8"?><svg id="Calque_1" xmlns="http://www.w3.org/2000/svg" viewBox="0 0 1135.36 1000"><defs><style>.cls-1{fill:#33d9b2;}.cls-2{fill:#2c2c54;}</style></defs><g><path class="cls-2" d="M202.4,659.24h-37.72v111.7h-33.74v-111.7h-37.72v-25h109.19v25Z"/><path class="cls-2" d="M413.74,634.24v136.69h-34.21v-57.8h-50.14v57.8h-31.87v-136.69h31.87v53.9h50.14v-53.9h34.21Z"/><path class="cls-2" d="M551.98,689.31h58.58v25h-58.58v31.63h63.97v25h-97.7v-136.69h97.7v25h-63.97v30.07Z"/><path class="cls-2" d="M719.04,634.24h50.38c33.04,0,51.78,16.79,51.78,42.57,0,16.79-8.44,30.07-23.43,36.91l34.91,57.21h-34.91l-29.99-51.94c-2.11,.2-4.22,.2-6.33,.2h-8.67v51.75h-33.74v-136.69Zm48.73,59.95c13.36,0,22.96-6.25,22.96-17.38s-9.61-17.58-22.96-17.58h-15v34.95h15Z"/><path class="cls-2" d="M999.74,744.96h-43.11l-7.73,25.97h-34.68l47.09-136.69h33.74l47.1,136.69h-34.68l-7.73-25.97Zm-7.73-24.41l-13.82-44.91-13.82,44.91h27.65Z"/></g><g><path class="cls-1" d="M88.17,472.28s16.94,67.06,69.89,82.38c52.94,15.32,158.17,7.57,158.17,7.57,0,0-24.28-79.84-228.05-89.94Z"/><path class="cls-1" d="M1046.83,472.28s-16.94,67.06-69.89,82.38c-52.94,15.32-158.17,7.57-158.17,7.57,0,0,24.28-79.84,228.05-89.94Z"/><g><path class="cls-2" d="M1062.17,458.38c-1.6-2.15-4.02-3.41-6.82-3.38-2.21,.03-208.98,2.48-255.04,.45l-33.66-247.61c-.09-.59-.25-1.15-.45-1.69-1.39-47.71-36.26-85.91-79.1-85.91s-79.17,39.79-79.17,88.87h.13l-14.46,222.93h-56.47l-9.83-222.93h.14c0-49.08-35.44-88.87-79.17-88.87s-77.71,38.2-79.1,85.91c-.2,.54-.36,1.1-.45,1.69l-33.66,247.61c-46.06,2.03-252.83-.42-255.04-.45-2.77-.02-5.22,1.23-6.82,3.38-1.6,2.16-2.07,4.95-1.26,7.51,1.19,3.76,29.86,92.36,91.87,103.55,.49,.09,.99,.13,1.49,.13,31.5,0,160.28,2.02,161.58,2.04h.14c.31,0,.63-.02,.95-.05,.1-.01,.2-.04,.3-.06,.22-.03,.42-.08,.64-.13,.26-.06,.51-.13,.76-.21,.2-.07,.4-.14,.59-.23,.24-.1,.48-.22,.71-.34,.18-.1,.36-.2,.53-.31,.22-.14,.44-.3,.65-.46,.16-.12,.32-.25,.47-.38,.2-.18,.38-.38,.56-.58,.13-.15,.27-.29,.39-.45,.17-.22,.32-.45,.47-.69,.1-.16,.21-.32,.31-.49,.15-.27,.26-.56,.38-.85,.06-.15,.14-.3,.19-.46,.15-.46,.28-.93,.35-1.42l8.73-56.96c14.03-7.58,39.36-16.77,43.58,12.74,5.89,41.2,57.38,41.2,94.16-13.24,36.78-54.44-17.66-57.38-77.98-80.92-24.19-9.44-35.54-26.96-40.46-44.56l21.96-171.2c.07-.43,.07-.85,.07-1.27h125.25c0,.14-.03,.28-.02,.42l10.25,231.3c.22,4.45,3.9,7.95,8.36,7.95h72.2c4.38,0,8.02-3.38,8.34-7.75l15.08-231.3c.02-.21-.02-.41-.02-.62h125.26c0,.42,0,.84,.07,1.27l3.84,52.95c-8.53,10.61-28.21,30.54-48.92,19.59-27.59-14.58-54.07-12.37-41.93,17.42,12.14,29.79,61.79,72.85,75.04,54.08,13.24-18.77-15.53-18.77-7.76-29.8,5.21-7.4,21.96-5.54,33.88,5.93l20.54,134.09h0l15.3,99.88c.07,.49,.2,.96,.35,1.42,.05,.16,.13,.31,.2,.46,.12,.29,.23,.57,.38,.84,.09,.17,.21,.33,.31,.49,.15,.23,.3,.47,.47,.68,.13,.16,.26,.3,.4,.45,.18,.2,.36,.39,.56,.57,.15,.14,.31,.26,.47,.39,.21,.16,.42,.32,.64,.46,.18,.11,.36,.21,.54,.31,.23,.12,.46,.24,.7,.34,.2,.08,.39,.16,.6,.23,.25,.08,.5,.15,.76,.21,.21,.05,.42,.1,.64,.13,.1,.02,.19,.05,.29,.06,.32,.03,.63,.05,.95,.05h.14c1.3-.02,130.08-2.04,161.58-2.04,.5,0,1-.04,1.49-.13,62.01-11.2,90.68-99.79,91.87-103.55,.81-2.56,.34-5.35-1.26-7.51Zm-729.69,13.9l-10.31,67.26c-27.85-33.17-84.9-54.1-135.91-66.83,56.29,.37,119.16,.5,146.21-.43Zm-240.17,.3c34.3,4.16,180.72,25.04,220.5,82.08-34.33-.52-120.47-1.79-146.74-1.82-39.58-7.68-64.29-57.23-73.76-80.26Zm856.77,.13c-51,12.73-108.05,33.66-135.89,66.83l-2.08-13.55-8.23-53.71c27.05,.93,89.91,.8,146.2,.43Zm20.21,80.13c-26.27,.03-112.41,1.3-146.74,1.82,39.78-57,186.2-77.91,220.5-82.08-9.48,23.03-34.18,72.57-73.76,80.26Z"/><path class="cls-1" d="M666.99,417.43c-26.76,10.54-83.76,60.68-50.08,74.54,33.69,13.86,36.4-35.54,61.96-31.59,18.49,2.86,21.42,30.86,2.65,36.71-19.28,6.01-49.74,39.43-6.89,47.53,42.85,8.1,72.61,10.36,86.2-23.21,1.84-4.55,3.27-8.82,4.34-12.79,5.33-19.64,1.82-42.43-9.46-59.37-17.63-26.47-43.02-49.83-88.73-31.82Z"/><path class="cls-1" d="M448.27,296.11c-.09-7.33-.98-14.09-2.58-20.04-6.01-22.32-36.32-26.48-48.57-6.88-7.48,11.97-12,28.25,.77,44.78,25.01,32.37,76.51,42.67,77.98,19.13,1.47-23.54-27.23-7.76-27.59-36.98Z"/><path class="cls-1" d="M595.27,545.42c-31.45,11.03-22.07-9.38-56.83-28.69-34.76-19.31-38.07,49.11-40.28,54.91h139.04s-10.48-37.25-41.93-26.22Z"/></g></g><g><path class="cls-2" d="M102.81,825.77v18.27h18.55v4.06h-18.55v18.55h20.65v4.06h-25.55v-49h25.55v4.06h-20.65Z"/><path class="cls-2" d="M221.81,870.71h-4.9l-27.09-41.16v41.16h-4.9v-48.93h4.9l27.09,41.09v-41.09h4.9v48.93Z"/><path class="cls-2" d="M323.24,836.06c-1.4-3.22-3.53-5.75-6.4-7.59-2.87-1.84-6.24-2.76-10.12-2.76-3.64,0-6.91,.84-9.8,2.52-2.89,1.68-5.18,4.07-6.86,7.17-1.68,3.1-2.52,6.71-2.52,10.82s.84,7.72,2.52,10.85c1.68,3.13,3.97,5.53,6.86,7.21,2.89,1.68,6.16,2.52,9.8,2.52,3.41,0,6.47-.74,9.21-2.21,2.73-1.47,4.92-3.57,6.58-6.3,1.66-2.73,2.6-5.92,2.83-9.56h-20.58v-3.99h25.76v3.57c-.23,4.29-1.4,8.18-3.5,11.66-2.1,3.48-4.91,6.22-8.43,8.23-3.52,2.01-7.48,3.01-11.87,3.01s-8.63-1.06-12.32-3.19c-3.69-2.12-6.59-5.09-8.71-8.89-2.12-3.8-3.18-8.11-3.18-12.92s1.06-9.11,3.18-12.92c2.12-3.8,5.03-6.77,8.71-8.89,3.69-2.12,7.79-3.19,12.32-3.19,5.23,0,9.8,1.31,13.72,3.92,3.92,2.61,6.77,6.25,8.54,10.92h-5.74Z"/><path class="cls-2" d="M396.18,821.78v48.93h-4.9v-48.93h4.9Z"/><path class="cls-2" d="M496,870.71h-4.9l-27.09-41.16v41.16h-4.9v-48.93h4.9l27.09,41.09v-41.09h4.9v48.93Z"/><path class="cls-2" d="M563.83,825.77v18.27h18.55v4.06h-18.55v18.55h20.65v4.06h-25.55v-49h25.55v4.06h-20.65Z"/><path class="cls-2" d="M650.84,825.77v18.27h18.55v4.06h-18.55v18.55h20.65v4.06h-25.55v-49h25.55v4.06h-20.65Z"/><path class="cls-2" d="M758.99,870.71l-12.11-20.44h-9.03v20.44h-4.9v-48.93h14.7c5.46,0,9.6,1.31,12.42,3.92,2.82,2.61,4.24,6.04,4.24,10.29,0,3.55-1.01,6.57-3.04,9.06-2.03,2.5-5.03,4.12-9,4.87l12.6,20.79h-5.88Zm-21.14-24.43h9.87c3.83,0,6.71-.93,8.64-2.8,1.94-1.87,2.91-4.36,2.91-7.49s-.93-5.71-2.8-7.46c-1.87-1.75-4.81-2.62-8.82-2.62h-9.8v20.37Z"/><path class="cls-2" d="M830.74,821.78v48.93h-4.9v-48.93h4.9Z"/><path class="cls-2" d="M930.56,870.71h-4.9l-27.09-41.16v41.16h-4.9v-48.93h4.9l27.09,41.09v-41.09h4.9v48.93Z"/><path class="cls-2" d="M1031.99,836.06c-1.4-3.22-3.53-5.75-6.4-7.59-2.87-1.84-6.24-2.76-10.12-2.76-3.64,0-6.91,.84-9.8,2.52-2.89,1.68-5.18,4.07-6.86,7.17-1.68,3.1-2.52,6.71-2.52,10.82s.84,7.72,2.52,10.85c1.68,3.13,3.97,5.53,6.86,7.21,2.89,1.68,6.16,2.52,9.8,2.52,3.41,0,6.47-.74,9.21-2.21,2.73-1.47,4.92-3.57,6.58-6.3,1.66-2.73,2.6-5.92,2.83-9.56h-20.58v-3.99h25.76v3.57c-.23,4.29-1.4,8.18-3.5,11.66-2.1,3.48-4.91,6.22-8.43,8.23-3.52,2.01-7.48,3.01-11.87,3.01s-8.63-1.06-12.32-3.19c-3.69-2.12-6.59-5.09-8.71-8.89-2.12-3.8-3.18-8.11-3.18-12.92s1.06-9.11,3.18-12.92c2.12-3.8,5.03-6.77,8.71-8.89,3.69-2.12,7.79-3.19,12.32-3.19,5.23,0,9.8,1.31,13.72,3.92,3.92,2.61,6.77,6.25,8.54,10.92h-5.74Z"/></g></svg>