<?xml version="1.0" standalone="no"?>
<!DOCTYPE svg PUBLIC "-//W3C//DTD SVG 20010904//EN"
 "http://www.w3.org/TR/2001/REC-SVG-20010904/DTD/svg10.dtd">
<svg version="1.0" xmlns="http://www.w3.org/2000/svg"
 width="1000.000000pt" height="1000.000000pt" viewBox="0 0 1000.000000 1000.000000"
 preserveAspectRatio="xMidYMid meet">
<metadata>
Created by potrace 1.14, written by Peter Selinger 2001-2017
</metadata>
<g transform="translate(0.000000,1000.000000) scale(0.100000,-0.100000)"
fill="#000000" stroke="none">
<path d="M3665 8785 c-151 -27 -274 -94 -395 -215 -150 -150 -237 -335 -259
-551 -21 -205 -346 -2556 -355 -2568 -9 -12 -207 -13 -1295 -9 l-1285 5 -23
-23 c-33 -33 -29 -69 18 -190 176 -451 470 -795 770 -901 l74 -27 555 -7
c1294 -16 1147 -17 1171 7 18 19 28 63 65 305 24 156 44 290 44 296 0 16 78
56 149 77 71 21 126 20 177 -3 64 -29 92 -79 118 -210 25 -119 84 -199 181
-243 69 -31 193 -30 285 1 268 92 590 473 590 699 0 63 -39 142 -93 186 -82
67 -186 112 -524 226 -127 44 -260 91 -295 106 -90 38 -190 106 -248 172 -55
61 -127 195 -136 252 -4 28 192 1616 212 1713 l6 27 624 0 624 0 0 -22 c0 -13
23 -527 50 -1143 27 -616 50 -1133 50 -1148 0 -18 11 -39 29 -58 l29 -29 381
0 c397 0 418 2 440 44 8 16 161 2235 161 2339 0 16 49 17 625 17 l624 0 5 -32
c3 -18 13 -140 22 -270 l16 -237 -31 -38 c-46 -56 -138 -130 -201 -161 -45
-22 -68 -26 -130 -26 -67 0 -84 5 -161 42 -150 73 -270 90 -349 50 -83 -42
-88 -135 -16 -284 95 -198 362 -456 542 -523 100 -38 168 -22 204 49 35 69 28
94 -45 165 -36 34 -65 66 -65 72 0 22 42 62 76 73 48 16 110 6 182 -30 102
-51 90 -13 177 -585 265 -1743 282 -1846 304 -1869 24 -24 -123 -23 1171 -7
l555 7 74 27 c249 88 496 340 674 689 69 135 137 307 137 348 0 19 -9 40 -23
54 l-23 23 -1285 -5 c-1088 -4 -1286 -3 -1295 9 -9 12 -334 2363 -355 2568
-22 214 -110 402 -259 551 -185 185 -408 259 -651 216 -157 -28 -277 -94 -404
-221 -104 -104 -161 -197 -211 -343 -43 -124 -41 -102 -119 -1357 -36 -572
-68 -1073 -72 -1112 l-6 -73 -283 0 -284 0 0 38 c1 93 -91 2199 -100 2297 -13
131 -55 264 -121 382 -53 93 -195 241 -281 292 -165 96 -336 129 -513 96z
m-1032 -3525 c-8 -67 -96 -636 -99 -639 -2 -2 -40 31 -85 73 -141 133 -345
256 -605 365 -137 57 -404 147 -542 182 l-93 24 678 5 c373 3 694 6 713 5 25
0 34 -4 33 -15z m5476 9 l666 0 -125 -35 c-502 -139 -894 -328 -1119 -540 -45
-42 -83 -75 -85 -73 -7 9 -102 650 -97 655 3 3 26 3 50 0 24 -3 344 -6 710 -7z
m-7632 -34 c751 -114 1364 -310 1713 -549 86 -58 251 -217 233 -223 -7 -3
-343 0 -747 6 -700 10 -736 11 -788 31 -224 84 -442 328 -603 675 l-44 95 37
-5 c20 -3 110 -16 199 -30z m9218 -60 c-161 -347 -379 -591 -603 -675 -52 -20
-88 -21 -794 -31 -407 -6 -742 -8 -745 -5 -3 3 32 43 78 89 266 264 801 480
1559 627 168 33 487 86 537 89 7 1 -6 -39 -32 -94z"/>
<path d="M250 3535 l0 -125 185 0 185 0 0 -560 0 -560 170 0 170 0 0 560 0
560 190 0 190 0 0 125 0 125 -545 0 -545 0 0 -125z"/>
<path d="M2290 2975 l0 -685 160 0 160 0 0 290 0 290 250 0 250 0 0 -290 0
-290 170 0 170 0 0 685 0 685 -170 0 -170 0 0 -270 0 -270 -250 0 -250 0 0
270 0 270 -160 0 -160 0 0 -685z"/>
<path d="M4500 2975 l0 -685 485 0 485 0 0 125 0 125 -317 2 -318 3 0 155 0
155 293 3 292 2 0 125 0 125 -295 0 -296 0 3 148 3 147 318 3 317 2 0 125 0
125 -485 0 -485 0 0 -685z"/>
<path d="M6500 2976 l0 -686 170 0 170 0 0 260 0 261 76 -3 76 -3 148 -255
147 -255 177 -3 c98 -1 175 1 173 5 -3 5 -79 131 -171 281 -91 150 -166 276
-166 281 0 6 9 13 20 16 39 12 136 112 163 168 52 107 54 262 4 371 -49 106
-147 184 -283 222 -48 14 -119 18 -381 21 l-323 5 0 -686z m559 423 c57 -12
104 -41 135 -82 31 -41 29 -130 -2 -175 -42 -59 -91 -76 -229 -80 l-123 -4 0
176 0 176 85 0 c46 0 107 -5 134 -11z"/>
<path d="M8692 2982 c-128 -372 -232 -680 -232 -685 0 -4 77 -6 172 -5 l171 3
13 40 c7 22 25 79 39 128 l26 87 214 0 214 0 26 -87 c14 -49 32 -106 39 -128
l13 -40 171 -3 c95 -1 172 1 172 5 0 5 -104 313 -232 685 l-233 678 -170 0
-170 0 -233 -678z m473 31 c36 -117 65 -214 65 -217 0 -3 -61 -6 -135 -6 -74
0 -135 3 -135 6 0 3 27 94 61 202 33 109 63 205 66 215 2 10 7 17 9 15 2 -2
33 -99 69 -215z"/>
<path d="M300 1535 l0 -245 125 0 c118 0 125 1 125 20 0 19 -7 20 -105 20
l-106 0 3 93 3 92 93 3 c84 2 92 4 92 22 0 18 -7 20 -95 20 l-95 0 0 90 0 90
105 0 c98 0 105 1 105 20 0 19 -7 20 -125 20 l-125 0 0 -245z"/>
<path d="M1170 1535 c0 -238 1 -245 20 -245 19 0 20 7 20 200 0 110 3 200 8
200 4 0 66 -90 137 -200 105 -162 134 -200 153 -200 l22 0 0 245 c0 238 -1
245 -20 245 -19 0 -20 -7 -20 -200 0 -110 -3 -200 -7 -200 -5 1 -66 91 -138
200 -105 162 -134 200 -152 200 l-23 0 0 -245z"/>
<path d="M2250 1748 c-78 -48 -112 -113 -112 -213 0 -100 34 -165 112 -212 48
-29 63 -33 125 -33 62 0 78 4 125 33 66 39 110 113 110 183 l0 44 -125 0
c-118 0 -125 -1 -125 -20 0 -19 7 -20 100 -20 94 0 100 -1 100 -20 0 -28 -33
-90 -62 -117 -73 -68 -208 -54 -272 30 -79 103 -43 267 68 318 79 36 180 13
227 -50 23 -31 69 -43 69 -18 0 23 -60 85 -103 106 -31 15 -63 21 -113 21 -61
0 -77 -4 -124 -32z"/>
<path d="M3230 1535 c0 -238 1 -245 20 -245 19 0 20 7 20 245 0 238 -1 245
-20 245 -19 0 -20 -7 -20 -245z"/>
<path d="M3910 1535 c0 -238 1 -245 20 -245 19 0 20 7 20 200 0 110 3 200 8
200 4 0 66 -90 137 -200 105 -162 134 -200 153 -200 l22 0 0 245 c0 238 -1
245 -20 245 -19 0 -20 -7 -20 -200 0 -110 -3 -200 -7 -200 -5 1 -66 91 -138
200 -105 162 -134 200 -152 200 l-23 0 0 -245z"/>
<path d="M4910 1535 l0 -245 125 0 c118 0 125 1 125 20 0 19 -7 20 -105 20
l-106 0 3 93 3 92 93 3 c84 2 92 4 92 22 0 18 -7 20 -95 20 l-95 0 0 90 0 90
105 0 c98 0 105 1 105 20 0 19 -7 20 -125 20 l-125 0 0 -245z"/>
<path d="M5780 1535 l0 -245 125 0 c118 0 125 1 125 20 0 19 -7 20 -105 20
l-106 0 3 93 3 92 93 3 c84 2 92 4 92 22 0 18 -7 20 -95 20 l-95 0 0 90 0 90
105 0 c98 0 105 1 105 20 0 19 -7 20 -125 20 l-125 0 0 -245z"/>
<path d="M6650 1536 c0 -238 1 -246 20 -246 18 0 20 8 22 103 l3 102 45 0 45
0 60 -102 c53 -90 63 -103 88 -103 15 0 27 2 27 5 0 3 -27 48 -60 102 l-59 97
39 17 c47 21 71 56 77 112 5 50 -18 100 -60 131 -23 17 -47 21 -138 24 l-109
4 0 -246z m210 186 c63 -31 67 -121 7 -166 -23 -17 -43 -21 -100 -21 l-72 0
-3 89 c-2 49 -1 95 2 103 8 20 123 17 166 -5z"/>
<path d="M7580 1535 c0 -238 1 -245 20 -245 19 0 20 7 20 245 0 238 -1 245
-20 245 -19 0 -20 -7 -20 -245z"/>
<path d="M8250 1535 c0 -238 1 -245 20 -245 19 0 20 7 20 200 0 110 3 200 8
200 4 0 66 -90 137 -200 105 -162 134 -200 153 -200 l22 0 0 245 c0 238 -1
245 -20 245 -19 0 -20 -7 -20 -200 0 -110 -3 -200 -7 -200 -5 1 -66 91 -138
200 -105 162 -134 200 -152 200 l-23 0 0 -245z"/>
<path d="M9340 1748 c-78 -48 -112 -113 -112 -213 0 -100 34 -165 112 -212 48
-29 63 -33 125 -33 62 0 78 4 125 33 66 39 110 113 110 183 l0 44 -125 0
c-118 0 -125 -1 -125 -20 0 -19 7 -20 100 -20 94 0 100 -1 100 -20 0 -28 -33
-90 -62 -117 -73 -68 -208 -54 -272 30 -79 103 -43 267 68 318 79 36 180 13
227 -50 23 -31 69 -43 69 -18 0 23 -60 85 -103 106 -31 15 -63 21 -113 21 -61
0 -77 -4 -124 -32z"/>
</g>
</svg>
